# File created by Blade
# Date/Time:  Tue Jan 27 17:21:46 2015
#---------------------------------------------------------
:version 1.10
:name HOM
:units
  mass 1.0
  length 1.000000
  angle deg
:documentation
     Acclaim Skeleton File
:root
   axis xyz
   order TX TY TZ RX RY RZ
   position 0.000000 0.000000 0.000000
   orientation 0 0 0
:bonedata
   begin
      id 1
      name Spine_dum
      direction 0.000000 1.000000 0.000000
      length 7.539951
      axis 0.0 0.0 0.0 xyz
   end
   begin
      id 2
      name LeftUpLeg_dum
      direction 1.000000 0.000000 0.000000
      length 3.345476
      axis 0.0 0.0 0.0 xyz
   end
   begin
      id 3
      name RightUpLeg_dum
      direction -1.000000 0.000000 0.000000
      length 3.345476
      axis 0.0 0.0 0.0 xyz
   end
   begin
      id 4
      name Spine
      direction 0.000000 1.000000 0.000000
      length 0.000000
      axis 0.0 0.0 0.0 xyz
      dof rx ry rz
   end
   begin
      id 5
      name Spine_dum1
      direction 0.000000 1.000000 0.000000
      length 15.093809
      axis 0.0 0.0 0.0 xyz
   end
   begin
      id 6
      name Spine_dum2
      direction 0.000000 1.000000 0.000000
      length 9.738928
      axis 0.0 0.0 0.0 xyz
   end
   begin
      id 7
      name Spine_dum3
      direction 0.000000 1.000000 0.000000
      length 9.738928
      axis 0.0 0.0 0.0 xyz
   end
   begin
      id 8
      name Head
      direction 0.000000 1.000000 0.000000
      length 4.527550
      axis 0.0 0.0 0.0 xyz
      dof rx ry rz
   end
   begin
      id 9
      name LeftShoulder
      direction 1.000000 0.000000 0.000000
      length 7.084015
      axis 0.0 0.0 -90.0 xyz
      dof rx ry rz
   end
   begin
      id 10
      name LeftArm
      direction 1.000000 0.000000 0.000000
      length 10.259319
      axis 0.0 0.0 -90.0 xyz
      dof rx ry rz
   end
   begin
      id 11
      name LeftForeArm
      direction 1.000000 0.000000 0.000000
      length 9.896984
      axis 0.0 0.0 -90.0 xyz
      dof ry rz rx
   end
   begin
      id 12
      name LeftHand
      direction 0.000000 0.000000 0.000000
      length 0.000000
      axis 0.0 0.0 -90.0 xyz
      dof rx ry rz
   end
   begin
      id 13
      name LeftHand_dum1
      direction 0.000000 0.000000 0.000000
      length 0.000000
      axis 0.0 0.0 -90.0 xyz
   end
   begin
      id 14
      name LeftHand_dum2
      direction 1.000000 0.000000 0.000000
      length 3.937000
      axis 0.0 0.0 -90.0 xyz
   end
   begin
      id 15
      name LeftHandThumb1
      direction 0.000000 0.000000 1.000000
      length 3.937000
      axis 0.0 0.0 -90.0 xyz
      dof rx rz ry
   end
   begin
      id 16
      name RightShoulder
      direction -1.000000 0.000000 0.000000
      length 7.084015
      axis 0.0 0.0 90.0 xyz
      dof rx ry rz
   end
   begin
      id 17
      name RightArm
      direction -1.000000 0.000000 0.000000
      length 10.259319
      axis 0.0 0.0 90.0 xyz
      dof rx ry rz
   end
   begin
      id 18
      name RightForeArm
      direction -1.000000 0.000000 0.000000
      length 9.896984
      axis 0.0 0.0 90.0 xyz
      dof ry rz rx
   end
   begin
      id 19
      name RightHand
      direction 0.000000 0.000000 0.000000
      length 0.000000
      axis 0.0 0.0 90.0 xyz
      dof rx ry rz
   end
   begin
      id 20
      name RightHand_dum1
      direction 0.000000 0.000000 0.000000
      length 0.000000
      axis 0.0 0.0 90.0 xyz
   end
   begin
      id 21
      name RightHand_dum2
      direction -1.000000 0.000000 0.000000
      length 3.937000
      axis 0.0 0.0 90.0 xyz
   end
   begin
      id 22
      name RightHandThumb1
      direction 0.000000 0.000000 1.000000
      length 3.937000
      axis 0.0 0.0 90.0 xyz
      dof rx rz ry
   end
   begin
      id 23
      name LeftUpLeg
      direction 0.000000 -1.000000 0.000000
      length 19.114733
      axis 0.0 0.0 0.0 xyz
      dof rx ry rz
   end
   begin
      id 24
      name LeftLeg
      direction 0.000000 -1.000000 0.000000
      length 16.045604
      axis 0.0 0.0 0.0 xyz
      dof rx ry rz
   end
   begin
      id 25
      name LeftFoot
      direction 0.000000 -0.258819 0.965926
      length 5.543155
      axis 15.0 0.0 0.0 xyz
      dof rx ry rz
   end
   begin
      id 26
      name LeftToeBase
      direction 0.000000 0.000000 1.000000
      length 2.952750
      axis 0.0 0.0 0.0 xyz
      dof rx ry rz
   end
   begin
      id 27
      name RightUpLeg
      direction 0.000000 -1.000000 0.000000
      length 19.114733
      axis 0.0 0.0 0.0 xyz
      dof rx ry rz
   end
   begin
      id 28
      name RightLeg
      direction 0.000000 -1.000000 0.000000
      length 16.045604
      axis 0.0 0.0 0.0 xyz
      dof rx ry rz
   end
   begin
      id 29
      name RightFoot
      direction 0.000000 -0.258819 0.965926
      length 5.543155
      axis 15.0 0.0 0.0 xyz
      dof rx ry rz
   end
   begin
      id 30
      name RightToeBase
      direction 0.000000 0.000000 1.000000
      length 2.952750
      axis 0.0 0.0 0.0 xyz
      dof rx ry rz
   end
:hierarchy
   begin
      root Spine_dum LeftUpLeg_dum RightUpLeg_dum
      Spine_dum Spine
      LeftUpLeg_dum LeftUpLeg
      RightUpLeg_dum RightUpLeg
      Spine Spine_dum1 Spine_dum2 Spine_dum3
      Spine_dum1 Head
      Spine_dum2 LeftShoulder
      Spine_dum3 RightShoulder
      LeftShoulder LeftArm
      LeftArm LeftForeArm
      LeftForeArm LeftHand
      LeftHand LeftHand_dum1 LeftHand_dum2
      LeftHand_dum1 LeftHandThumb1
      RightShoulder RightArm
      RightArm RightForeArm
      RightForeArm RightHand
      RightHand RightHand_dum1 RightHand_dum2
      RightHand_dum1 RightHandThumb1
      LeftUpLeg LeftLeg
      LeftLeg LeftFoot
      LeftFoot LeftToeBase
      RightUpLeg RightLeg
      RightLeg RightFoot
      RightFoot RightToeBase
   end

# File created by Blade
# Date/Time:  Tue Jan 27 17:21:37 2015
# Frame Rate: 120.000 fps
#------------------------------------------------------
:FULLY-SPECIFIED
:DEGREES
2159
root -2.783849 36.437219 -0.319260 6.564062 28.479292 1.015402
Spine 2.023146 3.029638 1.782236
Head 1.366662 -0.119570 -1.499095
LeftShoulder 0.514305 -15.592377 8.343148
LeftArm 8.004321 -18.741667 -44.478502
LeftForeArm -1.047934 -0.000000 64.969094
LeftHand -14.495366 0.000000 45.835081
LeftHandThumb1 -26.253704 0.000000 33.147579
RightShoulder -3.527922 -17.380441 2.177088
RightArm 16.690764 -20.814007 51.621872
RightForeArm 179.673890 -0.000000 34.535423
RightHand 0.118935 -0.000000 0.058128
RightHandThumb1 -24.326973 -0.000000 -32.862282
LeftUpLeg -61.802294 32.510688 -5.904457
LeftLeg 80.242688 -0.000000 -0.000000
LeftFoot -8.924834 11.283228 -29.894641
LeftToeBase 14.952098 -0.000000 -0.000000
RightUpLeg -15.136333 -17.513691 10.126036
RightLeg 19.437297 -0.000000 -0.000000
RightFoot -17.705468 -12.531631 -3.112591
RightToeBase 2.450423 -0.000000 -0.000000
2160
root -2.789848 36.432161 -0.305940 6.629685 28.611717 0.928372
Spine 1.798334 2.899747 1.808664
Head 1.494656 -0.185010 -1.427265
LeftShoulder 0.541225 -15.584547 8.331382
LeftArm 7.954862 -18.687954 -44.374297
LeftForeArm -1.064188 -0.000000 64.978157
LeftHand -14.556874 0.000000 45.856365
LeftHandThumb1 -26.253704 0.000000 33.147579
RightShoulder -3.638398 -17.476233 2.220979
RightArm 16.604352 -20.795441 51.674718
RightForeArm 179.670552 -0.000000 34.457141
RightHand 0.176116 0.000000 0.032909
RightHandThumb1 -24.326973 -0.000000 -32.862282
LeftUpLeg -62.302834 33.001934 -6.543628
LeftLeg 80.456046 -0.000000 -0.000000
LeftFoot -8.364861 10.751103 -30.583626
LeftToeBase 15.266477 -0.000000 -0.000000
RightUpLeg -15.222011 -17.475334 10.246366
RightLeg 19.419460 -0.000000 -0.000000
RightFoot -17.732030 -12.637703 -3.028425
RightToeBase 2.490140 -0.000000 -0.000000
2161
root -2.795379 36.427575 -0.287633 6.638829 28.799307 0.839499
Spine 1.652078 2.714647 1.827747
Head 1.570386 -0.229242 -1.310518
LeftShoulder 0.511901 -15.562390 8.363488
LeftArm 7.988166 -18.624326 -44.334706
LeftForeArm -1.044648 0.000000 64.967095
LeftHand -14.578018 -0.000000 46.059904
LeftHandThumb1 -26.253704 0.000000 33.147579
RightShoulder -3.729173 -17.529363 2.284679
RightArm 16.494160 -20.814647 51.708665
RightForeArm 179.647362 -0.000000 34.371470
RightHand 0.158806 -0.000000 0.172201
RightHandThumb1 -24.326973 -0.000000 -32.862282
LeftUpLeg -62.726094 33.406091 -7.078390
LeftLeg 80.727148 -0.000000 -0.000000
LeftFoot -7.850505 10.232943 -31.359050
LeftToeBase 15.571801 -0.000000 -0.000000
RightUpLeg -15.241779 -17.465979 10.355956
RightLeg 19.380340 -0.000000 -0.000000
RightFoot -17.789946 -12.716853 -2.854309
RightToeBase 2.549339 -0.000000 -0.000000
2162
root -2.801250 36.422148 -0.270222 6.623124 29.003354 0.723437
Spine 1.520165 2.586764 1.897789
Head 1.653339 -0.339341 -1.233164
LeftShoulder 0.540880 -15.516812 8.344176
LeftArm 8.060463 -18.568563 -44.281174
LeftForeArm -1.016677 -0.000000 64.951830
LeftHand -14.658869 -0.000000 45.911177
LeftHandThumb1 -26.253704 0.000000 33.147579
RightShoulder -3.858115 -17.596808 2.322987
RightArm 16.357349 -20.758055 51.797723
RightForeArm 179.653505 -0.000000 34.311506
RightHand 0.223672 0.000000 0.007480
RightHandThumb1 -24.326973 -0.000000 -32.862282
LeftUpLeg -63.108578 33.718655 -7.496239
LeftLeg 80.992429 -0.000000 -0.000000
LeftFoot -7.116652 9.734038 -31.888992
LeftToeBase 15.057007 -0.000000 -0.000000
RightUpLeg -15.245810 -17.407191 10.472806
RightLeg 19.356194 -0.000000 -0.000000
RightFoot -17.787168 -12.921830 -2.794020
RightToeBase 2.476361 -0.000000 -0.000000
2163
root -2.807586 36.417233 -0.249998 6.568561 29.210655 0.640588
Spine 1.482290 2.401216 1.889526
Head 1.657420 -0.402857 -1.057413
LeftShoulder 0.473026 -15.493464 8.400777
LeftArm 8.162889 -18.480910 -44.254243
LeftForeArm -1.035353 0.000000 64.963257
LeftHand -14.705140 -0.000000 46.131768
LeftHandThumb1 -26.253704 0.000000 33.147579
RightShoulder -3.921716 -17.644317 2.394060
RightArm 16.213265 -20.709946 51.866014
RightForeArm 179.601667 -0.000000 34.287206
RightHand 0.231469 -0.000000 -0.037198
RightHandThumb1 -24.326973 -0.000000 -32.862282
LeftUpLeg -63.356123 33.960876 -7.774639
LeftLeg 81.278147 -0.000000 -0.000000
LeftFoot -6.430790 8.980803 -32.763517
LeftToeBase 14.984565 -0.000000 -0.000000
RightUpLeg -15.192034 -17.385356 10.555781
RightLeg 19.302963 -0.000000 -0.000000
RightFoot -17.840974 -13.047577 -2.647927
RightToeBase 2.525217 -0.000000 -0.000000
